#define _width 5
#define _height 6
static char _bits[] = {
 0x0e,0x06,0x0a,0x0e,0x1f,0x00 };
