#define _width 5
#define _height 6
static char _bits[] = {
 0x00,0x04,0x0e,0x0e,0x1f,0x00 };
